<svg width="74" height="74" viewBox="0 0 74 74" fill="none" xmlns="http://www.w3.org/2000/svg">
<path d="M0.5 4C0.5 2.067 2.067 0.5 4 0.5H69.9445C71.8963 0.5 73.471 2.09658 73.4441 4.04827L72.6835 59.1917C72.6699 60.1767 72.2419 61.1104 71.5045 61.7635L59.2471 72.6201C58.607 73.187 57.7815 73.5 56.9264 73.5H4C2.067 73.5 0.5 71.933 0.5 70V4Z" fill="#F4F7FF" stroke="#D4D4D4"/>
<path d="M72.5 61.5H62C60.3431 61.5 59 62.8432 59 64.5V73.5L72.5 61.5Z" fill="#E21500"/>
<path d="M52.2127 37.872L38.1143 45.1995V56.4629H36.1418L31.3877 39.9287L39.1455 35.9355H24.148L21.8635 27.9549L50.0657 13.4545L52.3396 21.3722L36.6124 29.5018L50.0446 30.3153L52.2127 37.8777V37.872Z" fill="#1B0333"/>
</svg>
