<?xml version="1.0" encoding="UTF-8" standalone="no"?>
<svg
   xmlns:dc="http://purl.org/dc/elements/1.1/"
   xmlns:cc="http://creativecommons.org/ns#"
   xmlns:rdf="http://www.w3.org/1999/02/22-rdf-syntax-ns#"
   xmlns:svg="http://www.w3.org/2000/svg"
   xmlns="http://www.w3.org/2000/svg"
   xmlns:sodipodi="http://sodipodi.sourceforge.net/DTD/sodipodi-0.dtd"
   xmlns:inkscape="http://www.inkscape.org/namespaces/inkscape"
   sodipodi:docname="drawing.svg"
   inkscape:version="1.0beta1 (32d4812, 2019-09-19)"
   id="svg8"
   version="1.1"
   viewBox="0 0 50 11"
   height="11mm"
   width="50mm">
  <defs
     id="defs2">
    <clipPath
       clipPathUnits="userSpaceOnUse"
       id="clipPath26">
      <path
         d="M 0,316 H 442.5 V 0 H 0 Z"
         id="path24"
         inkscape:connector-curvature="0" />
    </clipPath>
  </defs>
  <sodipodi:namedview
     inkscape:window-maximized="0"
     inkscape:window-y="84"
     inkscape:window-x="2468"
     inkscape:window-height="1209"
     inkscape:window-width="1600"
     inkscape:pagecheckerboard="true"
     showgrid="false"
     inkscape:document-rotation="0"
     inkscape:current-layer="layer1"
     inkscape:document-units="mm"
     inkscape:cy="76.675351"
     inkscape:cx="119.8749"
     inkscape:zoom="1.979899"
     inkscape:pageshadow="2"
     inkscape:pageopacity="0"
     borderopacity="1.0"
     bordercolor="#666666"
     pagecolor="#ffffff"
     id="base" />
  <metadata
     id="metadata5">
    <rdf:RDF>
      <cc:Work
         rdf:about="">
        <dc:format>image/svg+xml</dc:format>
        <dc:type
           rdf:resource="http://purl.org/dc/dcmitype/StillImage" />
        <dc:title></dc:title>
      </cc:Work>
    </rdf:RDF>
  </metadata>
  <g
     id="layer1"
     inkscape:groupmode="layer"
     inkscape:label="Layer 1">
    <g
       transform="translate(-3.5229423,-2.0359921)"
       id="g82"
       style="fill:none">
      <g
         transform="matrix(0.35277777,0,0,-0.35277777,-49.678673,63.651125)"
         clip-path="url(#clipPath26)"
         id="g22"
         style="opacity:1;stop-opacity:1">
        <g
           transform="translate(246.5273,159.2969)"
           id="g28">
          <path
             inkscape:connector-curvature="0"
             id="path30"
             style="fill:#ffffff;fill-opacity:1;fill-rule:nonzero;stroke:none"
             d="m 0,0 c -0.123,-0.855 -0.439,-1.763 -0.951,-2.725 l -0.033,-0.064 c -0.512,-0.962 -1.159,-1.864 -1.938,-2.708 -0.781,-0.845 -1.634,-1.587 -2.56,-2.228 -0.93,-0.641 -1.909,-1.143 -2.936,-1.505 -1.025,-0.365 -2.03,-0.545 -3.014,-0.545 -1.004,0 -1.816,0.186 -2.44,0.56 -0.625,0.374 -1.07,0.882 -1.337,1.524 -0.27,0.639 -0.342,1.388 -0.219,2.243 0.123,0.853 0.441,1.761 0.951,2.723 l 0.036,0.065 c 0.51,0.961 1.155,1.863 1.935,2.708 0.78,0.843 1.634,1.587 2.563,2.226 0.928,0.642 1.9,1.143 2.917,1.506 1.016,0.364 2.026,0.545 3.03,0.545 0.982,0 1.791,-0.185 2.426,-0.56 0.633,-0.374 1.086,-0.88 1.353,-1.522 C 0.053,1.603 0.123,0.854 0,0 M 4.209,-2.725 4.243,-2.66 C 5.095,-1.06 5.6,0.443 5.755,1.843 5.911,3.241 5.738,4.459 5.231,5.495 4.725,6.532 3.906,7.354 2.777,7.964 1.647,8.572 0.218,8.878 -1.514,8.878 c -1.729,0 -3.49,-0.306 -5.275,-0.914 -1.788,-0.61 -3.492,-1.443 -5.112,-2.5 -1.62,-1.058 -3.101,-2.286 -4.442,-3.685 -1.344,-1.401 -2.439,-2.901 -3.293,-4.504 l -0.033,-0.064 c -0.852,-1.603 -1.358,-3.103 -1.515,-4.502 -0.156,-1.401 0.02,-2.619 0.526,-3.655 0.507,-1.036 1.324,-1.86 2.453,-2.468 1.129,-0.609 2.56,-0.913 4.291,-0.913 1.73,0 3.49,0.304 5.275,0.913 1.788,0.608 3.493,1.443 5.112,2.5 1.621,1.06 3.101,2.287 4.444,3.686 1.342,1.399 2.439,2.901 3.292,4.503" />
        </g>
        <g
           transform="translate(265.8711,151.9902)"
           id="g32">
          <path
             inkscape:connector-curvature="0"
             id="path34"
             style="fill:#ffffff;fill-opacity:1;fill-rule:nonzero;stroke:none"
             d="M 0,0 0.033,0.062 C 0.557,1.046 0.848,1.89 0.913,2.595 0.978,3.3 0.845,3.915 0.513,4.437 0.178,4.961 -0.33,5.411 -1.021,5.784 -1.713,6.157 -2.546,6.493 -3.522,6.793 -4.35,7.05 -5.028,7.273 -5.559,7.468 c -0.529,0.19 -0.919,0.392 -1.17,0.608 -0.25,0.213 -0.375,0.452 -0.372,0.72 0.004,0.267 0.101,0.582 0.293,0.945 l 0.035,0.066 c 0.295,0.553 0.783,1.019 1.463,1.393 0.679,0.373 1.5,0.562 2.462,0.562 0.962,0 1.817,-0.199 2.568,-0.594 0.751,-0.397 1.448,-0.935 2.089,-1.618 l 4.541,3.718 c -0.666,0.918 -1.557,1.624 -2.673,2.115 -1.117,0.491 -2.498,0.737 -4.144,0.737 -1.154,0 -2.295,-0.161 -3.422,-0.48 -1.131,-0.322 -2.199,-0.782 -3.206,-1.378 -1.009,-0.599 -1.921,-1.31 -2.741,-2.132 -0.819,-0.824 -1.502,-1.747 -2.047,-2.774 l -0.033,-0.062 c -0.592,-1.112 -0.91,-2.043 -0.953,-2.79 -0.045,-0.748 0.12,-1.372 0.496,-1.874 0.376,-0.503 0.934,-0.924 1.674,-1.266 0.74,-0.343 1.603,-0.652 2.592,-0.929 0.817,-0.235 1.464,-0.459 1.939,-0.673 0.475,-0.214 0.822,-0.428 1.041,-0.641 0.219,-0.215 0.32,-0.443 0.309,-0.69 -0.014,-0.245 -0.106,-0.529 -0.276,-0.849 l -0.034,-0.063 c -0.352,-0.664 -0.911,-1.18 -1.677,-1.555 -0.763,-0.374 -1.659,-0.561 -2.684,-0.561 -1.282,0 -2.332,0.245 -3.152,0.738 -0.816,0.491 -1.516,1.152 -2.097,1.986 l -4.777,-3.493 c 0.702,-1.218 1.714,-2.122 3.049,-2.709 1.332,-0.586 2.853,-0.88 4.562,-0.88 1.217,0 2.41,0.154 3.576,0.463 1.166,0.31 2.265,0.759 3.3,1.347 1.034,0.586 1.982,1.313 2.846,2.179 C -1.318,-2.1 -0.592,-1.111 0,0" />
        </g>
        <g
           transform="translate(220.9814,149.4658)"
           id="g36">
          <path
             inkscape:connector-curvature="0"
             id="path38"
             style="fill:#ffffff;fill-opacity:1;fill-rule:nonzero;stroke:none"
             d="M 0,0 9.9,18.569 H 4.965 L -4.722,0.401 c -0.752,-1.336 -0.882,-3.896 2.518,-4.836 0.033,-0.008 -0.078,0.052 -0.045,0.041 0.035,-0.01 0.065,-0.023 0.102,-0.033 H 2.942 C -0.391,-3.531 -0.622,-1.327 0,0" />
        </g>
        <g
           transform="translate(216.4434,150.2871)"
           id="g40">
          <path
             inkscape:connector-curvature="0"
             id="path42"
             style="fill:#ffffff;fill-opacity:1;fill-rule:nonzero;stroke:none"
             d="M 0,0 0.07,0.133 C 0.07,0.133 0.041,0.08 0,0" />
        </g>
        <g
           transform="translate(281.7461,169.9336)"
           id="g44">
          <path
             inkscape:connector-curvature="0"
             id="path46"
             style="fill:#ffffff;fill-opacity:1;fill-rule:nonzero;stroke:none"
             d="m 0,0 c 6.455,-0.199 8.42,3.49 8.42,3.49 l 0.098,0.092 h -55.004 c -6.455,0.199 -8.42,-3.49 -8.42,-3.49 L -55.004,0 Z" />
        </g>
        <g
           transform="translate(214.2891,160.1289)"
           id="g48">
          <path
             inkscape:connector-curvature="0"
             id="path50"
             style="fill:#ffffff;fill-opacity:1;fill-rule:nonzero;stroke:none"
             d="M 0,0 -0.034,-0.062 C -0.545,-1.025 -1.281,-1.793 -2.239,-2.37 -3.198,-2.947 -4.285,-3.236 -5.504,-3.236 h -4.999 l 3.425,6.441 h 4.903 c 1.219,0 2.028,-0.267 2.426,-0.801 C 0.652,1.87 0.567,1.069 0,0 m -13.916,-9.622 c 0.041,0.08 0.07,0.132 0.07,0.132 z M 5.939,5.386 C 5.229,6.902 3.453,7.661 0.611,7.661 H -9.646 l -9.365,-17.615 c -0.436,-1.055 -0.946,-3.961 2.529,-5.064 0.003,-10e-4 0.007,-0.003 0.011,-0.003 0.108,-0.034 0.198,-0.073 0.312,-0.104 h 4.945 c -3.936,1.058 -3.272,4.197 -2.825,5.239 0.015,0.033 0.027,0.06 0.04,0.089 l 0.006,0.012 c -0.015,-0.032 -0.029,-0.063 -0.046,-0.101 l 1.219,2.291 h 3.814 0.064 l 0.426,-3.09 c 0.622,-4.066 3.103,-4.405 3.103,-4.405 l 3.357,-0.006 v 0.006 h 2.319 c 0,0 -2.159,0.338 -2.947,3.599 l -0.72,4.729 c 1.715,0.533 3.322,1.373 4.815,2.516 1.494,1.143 2.726,2.622 3.691,4.439 l 0.034,0.064 c 1.135,2.137 1.403,3.846 0.803,5.129" />
        </g>
        <g
           transform="translate(264.4395,145.0205)"
           id="g52">
          <path
             inkscape:connector-curvature="0"
             id="path54"
             style="fill:#ffffff;fill-opacity:1;fill-rule:nonzero;stroke:none"
             d="M 0,0 C -0.003,0.002 -0.004,0.006 -0.006,0.008 -0.017,0.008 0.045,-0.041 0,0" />
        </g>
        <g
           transform="translate(281.9258,154.7441)"
           id="g56">
          <path
             inkscape:connector-curvature="0"
             id="path58"
             style="fill:#ffffff;fill-opacity:1;fill-rule:nonzero;stroke:none"
             d="M 0,0 H -5.962 L 0.887,7.277 Z M 4.377,-5.652 6.379,13.206 H 1.829 L -16.645,-6.093 c -0.529,-0.704 -1.015,-0.878 -1.224,-1.984 -0.084,-0.441 0.067,-1.355 0.377,-1.639 0,0 0.005,0 0.019,-0.009 l 5.258,-0.021 c -1.449,0.833 0.429,3.47 1.507,4.682 l 0.663,0.705 0.002,0.003 h 9.488 l -0.209,-1.673 c 0,-0.845 0.117,-1.863 0.569,-2.567 0.236,-0.368 0.558,-0.918 1.011,-1.039 0.03,-0.008 0.061,-0.011 0.09,-0.018 0.036,-0.009 0.071,-0.017 0.109,-0.024 h 5.133 c -0.069,0.011 -0.134,0.026 -0.199,0.042 -1.457,0.392 -1.622,2.679 -1.572,3.983" />
        </g>
        <g
           transform="translate(178.8135,163.4326)"
           id="g60">
          <path
             inkscape:connector-curvature="0"
             id="path62"
             style="fill:#ffffff;fill-opacity:1;fill-rule:nonzero;stroke:none"
             d="m 0,0 2.369,4.456 h -17.083 l -9.393,-17.829 -0.008,0.002 c -0.011,-0.025 -0.019,-0.047 -0.031,-0.072 -1.477,-3.124 1.311,-4.988 1.311,-4.988 h 1.046 0.616 4.709 c -4.256,1.143 -2.984,4.451 -2.598,5.266 l 1.889,3.55 H -6.47 l 2.369,4.455 H -14.805 L -12.146,0 Z" />
        </g>
        <g
           transform="translate(202.374,167.8389)"
           id="g64">
          <path
             inkscape:connector-curvature="0"
             id="path66"
             style="fill:#ffffff;fill-opacity:1;fill-rule:nonzero;stroke:none"
             d="m 0,0 h -4.935 l -4.941,-9.715 c -0.953,-1.795 -3.014,-6.028 -5.604,-7.781 -1.33,-0.9 -2.757,-1.347 -4.273,-1.347 -1.518,0 -2.457,0.466 -2.816,1.396 -0.363,0.928 -0.053,2.311 0.924,4.151 l 7.077,13.395 h -4.937 l -7.144,-13.525 c -1.761,-3.312 -2.281,-5.466 -1.436,-7.132 0.592,-1.167 1.728,-1.917 3.384,-2.265 l -0.024,-0.014 c 0,0 11.216,-3.881 17.645,9.449 0.021,0.041 0.044,0.079 0.065,0.121 z" />
        </g>
      </g>
    </g>
  </g>
</svg>
