<svg width="74" height="74" viewBox="0 0 74 74" fill="none" xmlns="http://www.w3.org/2000/svg">
<path d="M0 4C0 1.79086 1.79086 0 4 0H69.9445C72.1752 0 73.9748 1.82466 73.9441 4.05517L73.1835 59.1986C73.1679 60.3243 72.6787 61.3913 71.836 62.1378L59.5786 72.9943C58.8471 73.6423 57.9037 74 56.9264 74H4C1.79086 74 0 72.2091 0 70V4Z" fill="#1B0333"/>
<path d="M72 62H61.5C60.1193 62 59 63.1193 59 64.5V73.5L72 62Z" fill="#E21500"/>
<path d="M52.2127 37.872L38.1143 45.1995V56.4629H36.1418L31.3877 39.9287L39.1455 35.9355H24.148L21.8635 27.9549L50.0657 13.4545L52.3396 21.3722L36.6124 29.5018L50.0446 30.3153L52.2127 37.8777V37.872Z" fill="#F4F7FF"/>
</svg>
